<svg xmlns="http://www.w3.org/2000/svg" xmlns:xlink="http://www.w3.org/1999/xlink" contentStyleType="text/css" data-diagram-type="CLASS" height="1285px" preserveAspectRatio="none" style="width:4132px;height:1285px;background:#FFFFFF;" version="1.1" viewBox="0 0 4132 1285" width="4132px" zoomAndPan="magnify"><defs/><g><!--cluster domain--><g class="cluster" data-entity="domain" data-source-line="2" data-uid="ent0004" id="cluster_domain"><path d="M8.5,527.66 L63.2715,527.66 A3.75,3.75 0 0 1 65.7715,530.16 L72.7715,550.1483 L1137.5,550.1483 A2.5,2.5 0 0 1 1140,552.6483 L1140,1140.53 A2.5,2.5 0 0 1 1137.5,1143.03 L8.5,1143.03 A2.5,2.5 0 0 1 6,1140.53 L6,530.16 A2.5,2.5 0 0 1 8.5,527.66" fill="none" style="stroke:#000000;stroke-width:1.5;"/><line style="stroke:#000000;stroke-width:1.5;" x1="6" x2="72.7715" y1="550.1483" y2="550.1483"/><text fill="#000000" font-family="sans-serif" font-size="14" font-weight="bold" lengthAdjust="spacing" textLength="53.7715" x="10" y="543.1952">domain</text></g><!--cluster game--><g class="cluster" data-entity="game" data-source-line="1" data-uid="ent0002" id="cluster_game"><path d="M32.5,570.66 L72.7451,570.66 A3.75,3.75 0 0 1 75.2451,573.16 L82.2451,593.1483 L1113.5,593.1483 A2.5,2.5 0 0 1 1116,595.6483 L1116,1116.53 A2.5,2.5 0 0 1 1113.5,1119.03 L32.5,1119.03 A2.5,2.5 0 0 1 30,1116.53 L30,573.16 A2.5,2.5 0 0 1 32.5,570.66" fill="none" style="stroke:#000000;stroke-width:1.5;"/><line style="stroke:#000000;stroke-width:1.5;" x1="30" x2="82.2451" y1="593.1483" y2="593.1483"/><text fill="#000000" font-family="sans-serif" font-size="14" font-weight="bold" lengthAdjust="spacing" textLength="39.2451" x="34" y="586.1952">game</text></g><!--cluster events--><g class="cluster" data-entity="events" data-source-line="17" data-uid="ent0011" id="cluster_events"><path d="M56.5,821.44 L104.9961,821.44 A3.75,3.75 0 0 1 107.4961,823.94 L114.4961,843.9283 L698.5,843.9283 A2.5,2.5 0 0 1 701,846.4283 L701,1092.53 A2.5,2.5 0 0 1 698.5,1095.03 L56.5,1095.03 A2.5,2.5 0 0 1 54,1092.53 L54,823.94 A2.5,2.5 0 0 1 56.5,821.44" fill="none" style="stroke:#000000;stroke-width:1.5;"/><line style="stroke:#000000;stroke-width:1.5;" x1="54" x2="114.4961" y1="843.9283" y2="843.9283"/><text fill="#000000" font-family="sans-serif" font-size="14" font-weight="bold" lengthAdjust="spacing" textLength="47.4961" x="58" y="836.9752">events</text></g><!--cluster service--><g class="cluster" data-entity="service" data-source-line="29" data-uid="ent0021" id="cluster_service"><path d="M1166.5,453.46 L1218.4961,453.46 A3.75,3.75 0 0 1 1220.9961,455.96 L1227.9961,475.9483 L3972.5,475.9483 A2.5,2.5 0 0 1 3975,478.4483 L3975,1275.53 A2.5,2.5 0 0 1 3972.5,1278.03 L1166.5,1278.03 A2.5,2.5 0 0 1 1164,1275.53 L1164,455.96 A2.5,2.5 0 0 1 1166.5,453.46" fill="none" style="stroke:#000000;stroke-width:1.5;"/><line style="stroke:#000000;stroke-width:1.5;" x1="1164" x2="1227.9961" y1="475.9483" y2="475.9483"/><text fill="#000000" font-family="sans-serif" font-size="14" font-weight="bold" lengthAdjust="spacing" textLength="50.9961" x="1168" y="468.9952">service</text></g><!--cluster action--><g class="cluster" data-entity="action" data-source-line="28" data-uid="ent0019" id="cluster_action"><path d="M1576.5,570.66 L1621.5439,570.66 A3.75,3.75 0 0 1 1624.0439,573.16 L1631.0439,593.1483 L3610.5,593.1483 A2.5,2.5 0 0 1 3613,595.6483 L3613,1251.53 A2.5,2.5 0 0 1 3610.5,1254.03 L1576.5,1254.03 A2.5,2.5 0 0 1 1574,1251.53 L1574,573.16 A2.5,2.5 0 0 1 1576.5,570.66" fill="none" style="stroke:#000000;stroke-width:1.5;"/><line style="stroke:#000000;stroke-width:1.5;" x1="1574" x2="1631.0439" y1="593.1483" y2="593.1483"/><text fill="#000000" font-family="sans-serif" font-size="14" font-weight="bold" lengthAdjust="spacing" textLength="44.0439" x="1578" y="586.1952">action</text></g><!--cluster facade--><g class="cluster" data-entity="facade" data-source-line="73" data-uid="ent0055" id="cluster_facade"><path d="M1190.5,496.46 L1238.6953,496.46 A3.75,3.75 0 0 1 1241.1953,498.96 L1248.1953,518.9483 L1547.5,518.9483 A2.5,2.5 0 0 1 1550,521.4483 L1550,741.36 A2.5,2.5 0 0 1 1547.5,743.86 L1190.5,743.86 A2.5,2.5 0 0 1 1188,741.36 L1188,498.96 A2.5,2.5 0 0 1 1190.5,496.46" fill="none" style="stroke:#000000;stroke-width:1.5;"/><line style="stroke:#000000;stroke-width:1.5;" x1="1188" x2="1248.1953" y1="518.9483" y2="518.9483"/><text fill="#000000" font-family="sans-serif" font-size="14" font-weight="bold" lengthAdjust="spacing" textLength="47.1953" x="1192" y="511.9952">facade</text></g><!--cluster ui--><g class="cluster" data-entity="ui" data-source-line="88" data-uid="ent0057" id="cluster_ui"><path d="M1058.5,6 L1073.2471,6 A3.75,3.75 0 0 1 1075.7471,8.5 L1082.7471,28.4883 L1412.5,28.4883 A2.5,2.5 0 0 1 1415,30.9883 L1415,401.96 A2.5,2.5 0 0 1 1412.5,404.46 L1058.5,404.46 A2.5,2.5 0 0 1 1056,401.96 L1056,8.5 A2.5,2.5 0 0 1 1058.5,6" fill="none" style="stroke:#000000;stroke-width:1.5;"/><line style="stroke:#000000;stroke-width:1.5;" x1="1056" x2="1082.7471" y1="28.4883" y2="28.4883"/><text fill="#000000" font-family="sans-serif" font-size="14" font-weight="bold" lengthAdjust="spacing" textLength="13.7471" x="1060" y="21.5352">ui</text></g><!--class Game--><g class="entity" data-entity="Game" data-source-line="2" data-uid="ent0003" id="entity_Game"><rect fill="#F1F1F1" height="113.9531" rx="2.5" ry="2.5" style="stroke:#181818;stroke-width:0.5;" width="246.3223" x="716.84" y="823.47"/><ellipse cx="816.3918" cy="839.47" fill="#ADD1B2" rx="11" ry="11" style="stroke:#181818;stroke-width:1;"/><path d="M818.8649,845.6131 Q818.2838,845.9119 817.6447,846.0613 Q817.0055,846.2107 816.3,846.2107 Q813.7931,846.2107 812.4733,844.5589 Q811.1535,842.907 811.1535,839.7859 Q811.1535,836.6565 812.4733,835.0047 Q813.7931,833.3528 816.3,833.3528 Q817.0055,833.3528 817.653,833.5022 Q818.3004,833.6516 818.8649,833.9505 L818.8649,836.6731 Q818.234,836.0921 817.6405,835.8223 Q817.047,835.5525 816.4162,835.5525 Q815.0714,835.5525 814.3866,836.6192 Q813.7018,837.6858 813.7018,839.7859 Q813.7018,841.8777 814.3866,842.9444 Q815.0714,844.011 816.4162,844.011 Q817.047,844.011 817.6405,843.7412 Q818.234,843.4715 818.8649,842.8904 Z " fill="#000000"/><text fill="#000000" font-family="sans-serif" font-size="14" lengthAdjust="spacing" textLength="38.7188" x="836.8918" y="844.761">Game</text><line style="stroke:#181818;stroke-width:0.5;" x1="717.84" x2="962.1623" y1="855.47" y2="855.47"/><rect fill="none" height="6" style="stroke:#C82930;stroke-width:1;" width="6" x="724.84" y="866.2141"/><text fill="#000000" font-family="sans-serif" font-size="14" lengthAdjust="spacing" textLength="216.4053" x="736.84" y="873.0052">List&lt;GameObserver&gt; observers</text><line style="stroke:#181818;stroke-width:1;" x1="717.84" x2="962.1623" y1="879.9583" y2="879.9583"/><ellipse cx="727.84" cy="893.7024" fill="#84BE84" rx="3" ry="3" style="stroke:#038048;stroke-width:1;"/><text fill="#000000" font-family="sans-serif" font-size="14" lengthAdjust="spacing" textLength="195.4326" x="736.84" y="897.4934">addObserver(GameObserver)</text><ellipse cx="727.84" cy="910.1907" fill="#84BE84" rx="3" ry="3" style="stroke:#038048;stroke-width:1;"/><text fill="#000000" font-family="sans-serif" font-size="14" lengthAdjust="spacing" textLength="220.3223" x="736.84" y="913.9817">removeObserver(GameObserver)</text><ellipse cx="727.84" cy="926.679" fill="#84BE84" rx="3" ry="3" style="stroke:#038048;stroke-width:1;"/><text fill="#000000" font-family="sans-serif" font-size="14" lengthAdjust="spacing" textLength="191.6797" x="736.84" y="930.47">notifyObservers(GameEvent)</text></g><!--class GameObservable--><g class="entity" data-entity="GameObservable" data-source-line="3" data-uid="ent0005" id="entity_GameObservable"><rect fill="#F1F1F1" height="48" rx="2.5" ry="2.5" style="stroke:#181818;stroke-width:0.5;" width="146.707" x="766.65" y="605.66"/><ellipse cx="781.65" cy="621.66" fill="#B4A7E5" rx="11" ry="11" style="stroke:#181818;stroke-width:1;"/><path d="M778.0777,617.9251 L778.0777,615.7669 L785.4571,615.7669 L785.4571,617.9251 L782.9918,617.9251 L782.9918,626.0018 L785.4571,626.0018 L785.4571,628.16 L778.0777,628.16 L778.0777,626.0018 L780.5431,626.0018 L780.5431,617.9251 Z " fill="#000000"/><text fill="#000000" font-family="sans-serif" font-size="14" font-style="italic" lengthAdjust="spacing" textLength="114.707" x="795.65" y="626.951">GameObservable</text><line style="stroke:#181818;stroke-width:0.5;" x1="767.65" x2="912.357" y1="637.66" y2="637.66"/><line style="stroke:#181818;stroke-width:0.5;" x1="767.65" x2="912.357" y1="645.66" y2="645.66"/></g><!--class GameObserver--><g class="entity" data-entity="GameObserver" data-source-line="11" data-uid="ent0007" id="entity_GameObserver"><rect fill="#F1F1F1" height="48" rx="2.5" ry="2.5" style="stroke:#181818;stroke-width:0.5;" width="131.8457" x="968.08" y="605.66"/><ellipse cx="983.08" cy="621.66" fill="#B4A7E5" rx="11" ry="11" style="stroke:#181818;stroke-width:1;"/><path d="M979.5077,617.9251 L979.5077,615.7669 L986.8871,615.7669 L986.8871,617.9251 L984.4218,617.9251 L984.4218,626.0018 L986.8871,626.0018 L986.8871,628.16 L979.5077,628.16 L979.5077,626.0018 L981.9731,626.0018 L981.9731,617.9251 Z " fill="#000000"/><text fill="#000000" font-family="sans-serif" font-size="14" font-style="italic" lengthAdjust="spacing" textLength="99.8457" x="997.08" y="626.951">GameObserver</text><line style="stroke:#181818;stroke-width:0.5;" x1="969.08" x2="1098.9257" y1="637.66" y2="637.66"/><line style="stroke:#181818;stroke-width:0.5;" x1="969.08" x2="1098.9257" y1="645.66" y2="645.66"/></g><!--class GameView--><g class="entity" data-entity="GameView" data-source-line="14" data-uid="ent0009" id="entity_GameView"><rect fill="#F1F1F1" height="48" rx="2.5" ry="2.5" style="stroke:#181818;stroke-width:0.5;" width="102.5059" x="997.75" y="856.44"/><ellipse cx="1012.75" cy="872.44" fill="#ADD1B2" rx="11" ry="11" style="stroke:#181818;stroke-width:1;"/><path d="M1015.2231,878.5831 Q1014.6421,878.8819 1014.0029,879.0313 Q1013.3638,879.1807 1012.6582,879.1807 Q1010.1514,879.1807 1008.8315,877.5289 Q1007.5117,875.877 1007.5117,872.7559 Q1007.5117,869.6265 1008.8315,867.9747 Q1010.1514,866.3228 1012.6582,866.3228 Q1013.3638,866.3228 1014.0112,866.4722 Q1014.6587,866.6216 1015.2231,866.9205 L1015.2231,869.6431 Q1014.5923,869.0621 1013.9988,868.7923 Q1013.4053,868.5225 1012.7744,868.5225 Q1011.4297,868.5225 1010.7449,869.5892 Q1010.0601,870.6558 1010.0601,872.7559 Q1010.0601,874.8477 1010.7449,875.9144 Q1011.4297,876.981 1012.7744,876.981 Q1013.4053,876.981 1013.9988,876.7112 Q1014.5923,876.4415 1015.2231,875.8604 Z " fill="#000000"/><text fill="#000000" font-family="sans-serif" font-size="14" lengthAdjust="spacing" textLength="70.5059" x="1026.75" y="877.731">GameView</text><line style="stroke:#181818;stroke-width:0.5;" x1="998.75" x2="1099.2559" y1="888.44" y2="888.44"/><line style="stroke:#181818;stroke-width:0.5;" x1="998.75" x2="1099.2559" y1="896.44" y2="896.44"/></g><!--class GameEvent--><g class="entity" data-entity="GameEvent" data-source-line="18" data-uid="ent0012" id="entity_GameEvent"><rect fill="#F1F1F1" height="48" rx="2.5" ry="2.5" style="stroke:#181818;stroke-width:0.5;" width="107.2773" x="352.36" y="856.44"/><ellipse cx="367.36" cy="872.44" fill="#A9DCDF" rx="11" ry="11" style="stroke:#181818;stroke-width:1;"/><path d="M367.2233,867.7881 L366.0695,872.8599 L368.3854,872.8599 Z M365.7291,865.5469 L368.7257,865.5469 L372.0709,877.94 L369.6222,877.94 L368.8585,874.877 L365.5797,874.877 L364.8327,877.94 L362.3839,877.94 Z " fill="#000000"/><text fill="#000000" font-family="sans-serif" font-size="14" font-style="italic" lengthAdjust="spacing" textLength="75.2773" x="381.36" y="877.731">GameEvent</text><line style="stroke:#181818;stroke-width:0.5;" x1="353.36" x2="458.6373" y1="888.44" y2="888.44"/><line style="stroke:#181818;stroke-width:0.5;" x1="353.36" x2="458.6373" y1="896.44" y2="896.44"/></g><!--class PlayerTurnChangedEvent--><g class="entity" data-entity="PlayerTurnChangedEvent" data-source-line="19" data-uid="ent0013" id="entity_PlayerTurnChangedEvent"><rect fill="#F1F1F1" height="48" rx="2.5" ry="2.5" style="stroke:#181818;stroke-width:0.5;" width="201.0117" x="305.49" y="1031.03"/><ellipse cx="320.49" cy="1047.03" fill="#ADD1B2" rx="11" ry="11" style="stroke:#181818;stroke-width:1;"/><path d="M322.9631,1053.1731 Q322.3821,1053.4719 321.7429,1053.6213 Q321.1038,1053.7707 320.3982,1053.7707 Q317.8914,1053.7707 316.5715,1052.1189 Q315.2517,1050.467 315.2517,1047.3459 Q315.2517,1044.2165 316.5715,1042.5647 Q317.8914,1040.9128 320.3982,1040.9128 Q321.1038,1040.9128 321.7512,1041.0622 Q322.3987,1041.2116 322.9631,1041.5105 L322.9631,1044.2331 Q322.3323,1043.6521 321.7388,1043.3823 Q321.1453,1043.1125 320.5144,1043.1125 Q319.1697,1043.1125 318.4849,1044.1792 Q317.8001,1045.2458 317.8001,1047.3459 Q317.8001,1049.4377 318.4849,1050.5044 Q319.1697,1051.571 320.5144,1051.571 Q321.1453,1051.571 321.7388,1051.3012 Q322.3323,1051.0315 322.9631,1050.4504 Z " fill="#000000"/><text fill="#000000" font-family="sans-serif" font-size="14" lengthAdjust="spacing" textLength="169.0117" x="334.49" y="1052.321">PlayerTurnChangedEvent</text><line style="stroke:#181818;stroke-width:0.5;" x1="306.49" x2="505.5017" y1="1063.03" y2="1063.03"/><line style="stroke:#181818;stroke-width:0.5;" x1="306.49" x2="505.5017" y1="1071.03" y2="1071.03"/></g><!--class CardPlayedEvent--><g class="entity" data-entity="CardPlayedEvent" data-source-line="20" data-uid="ent0014" id="entity_CardPlayedEvent"><rect fill="#F1F1F1" height="48" rx="2.5" ry="2.5" style="stroke:#181818;stroke-width:0.5;" width="143.959" x="541.02" y="1031.03"/><ellipse cx="556.02" cy="1047.03" fill="#ADD1B2" rx="11" ry="11" style="stroke:#181818;stroke-width:1;"/><path d="M558.4931,1053.1731 Q557.9121,1053.4719 557.2729,1053.6213 Q556.6338,1053.7707 555.9282,1053.7707 Q553.4214,1053.7707 552.1015,1052.1189 Q550.7817,1050.467 550.7817,1047.3459 Q550.7817,1044.2165 552.1015,1042.5647 Q553.4214,1040.9128 555.9282,1040.9128 Q556.6338,1040.9128 557.2812,1041.0622 Q557.9287,1041.2116 558.4931,1041.5105 L558.4931,1044.2331 Q557.8623,1043.6521 557.2688,1043.3823 Q556.6753,1043.1125 556.0444,1043.1125 Q554.6997,1043.1125 554.0149,1044.1792 Q553.3301,1045.2458 553.3301,1047.3459 Q553.3301,1049.4377 554.0149,1050.5044 Q554.6997,1051.571 556.0444,1051.571 Q556.6753,1051.571 557.2688,1051.3012 Q557.8623,1051.0315 558.4931,1050.4504 Z " fill="#000000"/><text fill="#000000" font-family="sans-serif" font-size="14" lengthAdjust="spacing" textLength="111.959" x="570.02" y="1052.321">CardPlayedEvent</text><line style="stroke:#181818;stroke-width:0.5;" x1="542.02" x2="683.979" y1="1063.03" y2="1063.03"/><line style="stroke:#181818;stroke-width:0.5;" x1="542.02" x2="683.979" y1="1071.03" y2="1071.03"/></g><!--class GameStateChangedEvent--><g class="entity" data-entity="GameStateChangedEvent" data-source-line="21" data-uid="ent0015" id="entity_GameStateChangedEvent"><rect fill="#F1F1F1" height="48" rx="2.5" ry="2.5" style="stroke:#181818;stroke-width:0.5;" width="200.957" x="69.52" y="1031.03"/><ellipse cx="84.52" cy="1047.03" fill="#ADD1B2" rx="11" ry="11" style="stroke:#181818;stroke-width:1;"/><path d="M86.9931,1053.1731 Q86.4121,1053.4719 85.7729,1053.6213 Q85.1338,1053.7707 84.4282,1053.7707 Q81.9214,1053.7707 80.6015,1052.1189 Q79.2817,1050.467 79.2817,1047.3459 Q79.2817,1044.2165 80.6015,1042.5647 Q81.9214,1040.9128 84.4282,1040.9128 Q85.1338,1040.9128 85.7812,1041.0622 Q86.4287,1041.2116 86.9931,1041.5105 L86.9931,1044.2331 Q86.3623,1043.6521 85.7688,1043.3823 Q85.1753,1043.1125 84.5444,1043.1125 Q83.1997,1043.1125 82.5149,1044.1792 Q81.8301,1045.2458 81.8301,1047.3459 Q81.8301,1049.4377 82.5149,1050.5044 Q83.1997,1051.571 84.5444,1051.571 Q85.1753,1051.571 85.7688,1051.3012 Q86.3623,1051.0315 86.9931,1050.4504 Z " fill="#000000"/><text fill="#000000" font-family="sans-serif" font-size="14" lengthAdjust="spacing" textLength="168.957" x="98.52" y="1052.321">GameStateChangedEvent</text><line style="stroke:#181818;stroke-width:0.5;" x1="70.52" x2="269.477" y1="1063.03" y2="1063.03"/><line style="stroke:#181818;stroke-width:0.5;" x1="70.52" x2="269.477" y1="1071.03" y2="1071.03"/></g><!--class GameService--><g class="entity" data-entity="GameService" data-source-line="63" data-uid="ent0052" id="entity_GameService"><rect fill="#F1F1F1" height="147.1738" rx="2.5" ry="2.5" style="stroke:#181818;stroke-width:0.5;" width="329.6934" x="3629.15" y="806.86"/><ellipse cx="3746.7213" cy="822.86" fill="#ADD1B2" rx="11" ry="11" style="stroke:#181818;stroke-width:1;"/><path d="M3749.1944,829.0031 Q3748.6134,829.3019 3747.9742,829.4513 Q3747.3351,829.6007 3746.6295,829.6007 Q3744.1227,829.6007 3742.8028,827.9489 Q3741.483,826.297 3741.483,823.1759 Q3741.483,820.0465 3742.8028,818.3947 Q3744.1227,816.7428 3746.6295,816.7428 Q3747.3351,816.7428 3747.9825,816.8922 Q3748.63,817.0416 3749.1944,817.3405 L3749.1944,820.0631 Q3748.5636,819.4821 3747.9701,819.2123 Q3747.3766,818.9425 3746.7457,818.9425 Q3745.401,818.9425 3744.7162,820.0092 Q3744.0313,821.0758 3744.0313,823.1759 Q3744.0313,825.2677 3744.7162,826.3344 Q3745.401,827.401 3746.7457,827.401 Q3747.3766,827.401 3747.9701,827.1312 Q3748.5636,826.8615 3749.1944,826.2804 Z " fill="#000000"/><text fill="#000000" font-family="sans-serif" font-size="14" lengthAdjust="spacing" textLength="86.0508" x="3767.2213" y="828.151">GameService</text><line style="stroke:#181818;stroke-width:0.5;" x1="3630.15" x2="3957.8434" y1="838.86" y2="838.86"/><rect fill="none" height="6" style="stroke:#C82930;stroke-width:1;" width="6" x="3637.15" y="849.6041"/><text fill="#000000" font-family="sans-serif" font-size="14" lengthAdjust="spacing" textLength="219.8369" x="3649.15" y="856.3952">CardActionFactory actionFactory</text><ellipse cx="3640.15" cy="869.0924" fill="#84BE84" rx="3" ry="3" style="stroke:#038048;stroke-width:1;"/><text fill="#000000" font-family="sans-serif" font-size="14" lengthAdjust="spacing" textLength="303.6934" x="3649.15" y="872.8834">executeCardAction(CardType, GameContext)</text><ellipse cx="3640.15" cy="885.5807" fill="#84BE84" rx="3" ry="3" style="stroke:#038048;stroke-width:1;"/><text fill="#000000" font-family="sans-serif" font-size="14" lengthAdjust="spacing" textLength="179.1973" x="3649.15" y="889.3717">setPlayerNumberOfTurns()</text><ellipse cx="3640.15" cy="902.069" fill="#84BE84" rx="3" ry="3" style="stroke:#038048;stroke-width:1;"/><text fill="#000000" font-family="sans-serif" font-size="14" lengthAdjust="spacing" textLength="291.6689" x="3649.15" y="905.86">setTurnToTargetedIndexIfAttackOccurred()</text><ellipse cx="3640.15" cy="918.5573" fill="#84BE84" rx="3" ry="3" style="stroke:#038048;stroke-width:1;"/><text fill="#000000" font-family="sans-serif" font-size="14" lengthAdjust="spacing" textLength="149.6523" x="3649.15" y="922.3483">incrementPlayerTurn()</text><line style="stroke:#181818;stroke-width:1;stroke-dasharray:1,2;" x1="3630.15" x2="3734.1104" y1="937.5455" y2="937.5455"/><text fill="#000000" font-family="sans-serif" font-size="14" lengthAdjust="spacing" textLength="119.7725" x="3734.1104" y="942.3366">Observer updates</text><line style="stroke:#181818;stroke-width:1;stroke-dasharray:1,2;" x1="3853.8829" x2="3957.8434" y1="937.5455" y2="937.5455"/></g><!--class IGameService--><g class="entity" data-entity="IGameService" data-source-line="64" data-uid="ent0053" id="entity_IGameService"><rect fill="#F1F1F1" height="48" rx="2.5" ry="2.5" style="stroke:#181818;stroke-width:0.5;" width="122.084" x="3732.96" y="605.66"/><ellipse cx="3747.96" cy="621.66" fill="#B4A7E5" rx="11" ry="11" style="stroke:#181818;stroke-width:1;"/><path d="M3744.3877,617.9251 L3744.3877,615.7669 L3751.7671,615.7669 L3751.7671,617.9251 L3749.3018,617.9251 L3749.3018,626.0018 L3751.7671,626.0018 L3751.7671,628.16 L3744.3877,628.16 L3744.3877,626.0018 L3746.8531,626.0018 L3746.8531,617.9251 Z " fill="#000000"/><text fill="#000000" font-family="sans-serif" font-size="14" font-style="italic" lengthAdjust="spacing" textLength="90.084" x="3761.96" y="626.951">IGameService</text><line style="stroke:#181818;stroke-width:0.5;" x1="3733.96" x2="3854.044" y1="637.66" y2="637.66"/><line style="stroke:#181818;stroke-width:0.5;" x1="3733.96" x2="3854.044" y1="645.66" y2="645.66"/></g><!--class CardAction--><g class="entity" data-entity="CardAction" data-source-line="29" data-uid="ent0020" id="entity_CardAction"><rect fill="#F1F1F1" height="48" rx="2.5" ry="2.5" style="stroke:#181818;stroke-width:0.5;" width="107.3594" x="2779.32" y="856.44"/><ellipse cx="2794.32" cy="872.44" fill="#B4A7E5" rx="11" ry="11" style="stroke:#181818;stroke-width:1;"/><path d="M2790.7477,868.7051 L2790.7477,866.5469 L2798.1271,866.5469 L2798.1271,868.7051 L2795.6618,868.7051 L2795.6618,876.7818 L2798.1271,876.7818 L2798.1271,878.94 L2790.7477,878.94 L2790.7477,876.7818 L2793.2131,876.7818 L2793.2131,868.7051 Z " fill="#000000"/><text fill="#000000" font-family="sans-serif" font-size="14" font-style="italic" lengthAdjust="spacing" textLength="75.3594" x="2808.32" y="877.731">CardAction</text><line style="stroke:#181818;stroke-width:0.5;" x1="2780.32" x2="2885.6794" y1="888.44" y2="888.44"/><line style="stroke:#181818;stroke-width:0.5;" x1="2780.32" x2="2885.6794" y1="896.44" y2="896.44"/></g><!--class AbstractCardAction--><g class="entity" data-entity="AbstractCardAction" data-source-line="30" data-uid="ent0022" id="entity_AbstractCardAction"><rect fill="#F1F1F1" height="48" rx="2.5" ry="2.5" style="stroke:#181818;stroke-width:0.5;" width="164.0703" x="2272.96" y="1031.03"/><ellipse cx="2287.96" cy="1047.03" fill="#A9DCDF" rx="11" ry="11" style="stroke:#181818;stroke-width:1;"/><path d="M2287.8233,1042.3781 L2286.6695,1047.4499 L2288.9854,1047.4499 Z M2286.3291,1040.1369 L2289.3257,1040.1369 L2292.6709,1052.53 L2290.2222,1052.53 L2289.4585,1049.467 L2286.1797,1049.467 L2285.4327,1052.53 L2282.9839,1052.53 Z " fill="#000000"/><text fill="#000000" font-family="sans-serif" font-size="14" font-style="italic" lengthAdjust="spacing" textLength="132.0703" x="2301.96" y="1052.321">AbstractCardAction</text><line style="stroke:#181818;stroke-width:0.5;" x1="2273.96" x2="2436.0303" y1="1063.03" y2="1063.03"/><line style="stroke:#181818;stroke-width:0.5;" x1="2273.96" x2="2436.0303" y1="1071.03" y2="1071.03"/></g><!--class AttackAction--><g class="entity" data-entity="AttackAction" data-source-line="31" data-uid="ent0023" id="entity_AttackAction"><rect fill="#F1F1F1" height="48" rx="2.5" ry="2.5" style="stroke:#181818;stroke-width:0.5;" width="118.6182" x="1589.69" y="1190.03"/><ellipse cx="1604.69" cy="1206.03" fill="#ADD1B2" rx="11" ry="11" style="stroke:#181818;stroke-width:1;"/><path d="M1607.1631,1212.1731 Q1606.5821,1212.4719 1605.9429,1212.6213 Q1605.3038,1212.7707 1604.5982,1212.7707 Q1602.0914,1212.7707 1600.7715,1211.1189 Q1599.4517,1209.467 1599.4517,1206.3459 Q1599.4517,1203.2165 1600.7715,1201.5647 Q1602.0914,1199.9128 1604.5982,1199.9128 Q1605.3038,1199.9128 1605.9512,1200.0622 Q1606.5987,1200.2116 1607.1631,1200.5105 L1607.1631,1203.2331 Q1606.5323,1202.6521 1605.9388,1202.3823 Q1605.3453,1202.1125 1604.7144,1202.1125 Q1603.3697,1202.1125 1602.6849,1203.1792 Q1602.0001,1204.2458 1602.0001,1206.3459 Q1602.0001,1208.4377 1602.6849,1209.5044 Q1603.3697,1210.571 1604.7144,1210.571 Q1605.3453,1210.571 1605.9388,1210.3012 Q1606.5323,1210.0315 1607.1631,1209.4504 Z " fill="#000000"/><text fill="#000000" font-family="sans-serif" font-size="14" lengthAdjust="spacing" textLength="86.6182" x="1618.69" y="1211.321">AttackAction</text><line style="stroke:#181818;stroke-width:0.5;" x1="1590.69" x2="1707.3082" y1="1222.03" y2="1222.03"/><line style="stroke:#181818;stroke-width:0.5;" x1="1590.69" x2="1707.3082" y1="1230.03" y2="1230.03"/></g><!--class SkipAction--><g class="entity" data-entity="SkipAction" data-source-line="32" data-uid="ent0024" id="entity_SkipAction"><rect fill="#F1F1F1" height="48" rx="2.5" ry="2.5" style="stroke:#181818;stroke-width:0.5;" width="103.9824" x="1743.01" y="1190.03"/><ellipse cx="1758.01" cy="1206.03" fill="#ADD1B2" rx="11" ry="11" style="stroke:#181818;stroke-width:1;"/><path d="M1760.4831,1212.1731 Q1759.9021,1212.4719 1759.2629,1212.6213 Q1758.6238,1212.7707 1757.9182,1212.7707 Q1755.4114,1212.7707 1754.0915,1211.1189 Q1752.7717,1209.467 1752.7717,1206.3459 Q1752.7717,1203.2165 1754.0915,1201.5647 Q1755.4114,1199.9128 1757.9182,1199.9128 Q1758.6238,1199.9128 1759.2712,1200.0622 Q1759.9187,1200.2116 1760.4831,1200.5105 L1760.4831,1203.2331 Q1759.8523,1202.6521 1759.2588,1202.3823 Q1758.6653,1202.1125 1758.0344,1202.1125 Q1756.6897,1202.1125 1756.0049,1203.1792 Q1755.3201,1204.2458 1755.3201,1206.3459 Q1755.3201,1208.4377 1756.0049,1209.5044 Q1756.6897,1210.571 1758.0344,1210.571 Q1758.6653,1210.571 1759.2588,1210.3012 Q1759.8523,1210.0315 1760.4831,1209.4504 Z " fill="#000000"/><text fill="#000000" font-family="sans-serif" font-size="14" lengthAdjust="spacing" textLength="71.9824" x="1772.01" y="1211.321">SkipAction</text><line style="stroke:#181818;stroke-width:0.5;" x1="1744.01" x2="1845.9924" y1="1222.03" y2="1222.03"/><line style="stroke:#181818;stroke-width:0.5;" x1="1744.01" x2="1845.9924" y1="1230.03" y2="1230.03"/></g><!--class SuperSkipAction--><g class="entity" data-entity="SuperSkipAction" data-source-line="33" data-uid="ent0025" id="entity_SuperSkipAction"><rect fill="#F1F1F1" height="48" rx="2.5" ry="2.5" style="stroke:#181818;stroke-width:0.5;" width="142.5508" x="1881.72" y="1190.03"/><ellipse cx="1896.72" cy="1206.03" fill="#ADD1B2" rx="11" ry="11" style="stroke:#181818;stroke-width:1;"/><path d="M1899.1931,1212.1731 Q1898.6121,1212.4719 1897.9729,1212.6213 Q1897.3338,1212.7707 1896.6282,1212.7707 Q1894.1214,1212.7707 1892.8015,1211.1189 Q1891.4817,1209.467 1891.4817,1206.3459 Q1891.4817,1203.2165 1892.8015,1201.5647 Q1894.1214,1199.9128 1896.6282,1199.9128 Q1897.3338,1199.9128 1897.9812,1200.0622 Q1898.6287,1200.2116 1899.1931,1200.5105 L1899.1931,1203.2331 Q1898.5623,1202.6521 1897.9688,1202.3823 Q1897.3753,1202.1125 1896.7444,1202.1125 Q1895.3997,1202.1125 1894.7149,1203.1792 Q1894.0301,1204.2458 1894.0301,1206.3459 Q1894.0301,1208.4377 1894.7149,1209.5044 Q1895.3997,1210.571 1896.7444,1210.571 Q1897.3753,1210.571 1897.9688,1210.3012 Q1898.5623,1210.0315 1899.1931,1209.4504 Z " fill="#000000"/><text fill="#000000" font-family="sans-serif" font-size="14" lengthAdjust="spacing" textLength="110.5508" x="1910.72" y="1211.321">SuperSkipAction</text><line style="stroke:#181818;stroke-width:0.5;" x1="1882.72" x2="2023.2708" y1="1222.03" y2="1222.03"/><line style="stroke:#181818;stroke-width:0.5;" x1="1882.72" x2="2023.2708" y1="1230.03" y2="1230.03"/></g><!--class ShuffleAction--><g class="entity" data-entity="ShuffleAction" data-source-line="34" data-uid="ent0026" id="entity_ShuffleAction"><rect fill="#F1F1F1" height="48" rx="2.5" ry="2.5" style="stroke:#181818;stroke-width:0.5;" width="122.46" x="2059.77" y="1190.03"/><ellipse cx="2074.77" cy="1206.03" fill="#ADD1B2" rx="11" ry="11" style="stroke:#181818;stroke-width:1;"/><path d="M2077.2431,1212.1731 Q2076.6621,1212.4719 2076.0229,1212.6213 Q2075.3838,1212.7707 2074.6782,1212.7707 Q2072.1714,1212.7707 2070.8515,1211.1189 Q2069.5317,1209.467 2069.5317,1206.3459 Q2069.5317,1203.2165 2070.8515,1201.5647 Q2072.1714,1199.9128 2074.6782,1199.9128 Q2075.3838,1199.9128 2076.0312,1200.0622 Q2076.6787,1200.2116 2077.2431,1200.5105 L2077.2431,1203.2331 Q2076.6123,1202.6521 2076.0188,1202.3823 Q2075.4253,1202.1125 2074.7944,1202.1125 Q2073.4497,1202.1125 2072.7649,1203.1792 Q2072.0801,1204.2458 2072.0801,1206.3459 Q2072.0801,1208.4377 2072.7649,1209.5044 Q2073.4497,1210.571 2074.7944,1210.571 Q2075.4253,1210.571 2076.0188,1210.3012 Q2076.6123,1210.0315 2077.2431,1209.4504 Z " fill="#000000"/><text fill="#000000" font-family="sans-serif" font-size="14" lengthAdjust="spacing" textLength="90.46" x="2088.77" y="1211.321">ShuffleAction</text><line style="stroke:#181818;stroke-width:0.5;" x1="2060.77" x2="2181.23" y1="1222.03" y2="1222.03"/><line style="stroke:#181818;stroke-width:0.5;" x1="2060.77" x2="2181.23" y1="1230.03" y2="1230.03"/></g><!--class ReverseAction--><g class="entity" data-entity="ReverseAction" data-source-line="35" data-uid="ent0027" id="entity_ReverseAction"><rect fill="#F1F1F1" height="48" rx="2.5" ry="2.5" style="stroke:#181818;stroke-width:0.5;" width="127.7646" x="2217.12" y="1190.03"/><ellipse cx="2232.12" cy="1206.03" fill="#ADD1B2" rx="11" ry="11" style="stroke:#181818;stroke-width:1;"/><path d="M2234.5931,1212.1731 Q2234.0121,1212.4719 2233.3729,1212.6213 Q2232.7338,1212.7707 2232.0282,1212.7707 Q2229.5214,1212.7707 2228.2015,1211.1189 Q2226.8817,1209.467 2226.8817,1206.3459 Q2226.8817,1203.2165 2228.2015,1201.5647 Q2229.5214,1199.9128 2232.0282,1199.9128 Q2232.7338,1199.9128 2233.3812,1200.0622 Q2234.0287,1200.2116 2234.5931,1200.5105 L2234.5931,1203.2331 Q2233.9623,1202.6521 2233.3688,1202.3823 Q2232.7753,1202.1125 2232.1444,1202.1125 Q2230.7997,1202.1125 2230.1149,1203.1792 Q2229.4301,1204.2458 2229.4301,1206.3459 Q2229.4301,1208.4377 2230.1149,1209.5044 Q2230.7997,1210.571 2232.1444,1210.571 Q2232.7753,1210.571 2233.3688,1210.3012 Q2233.9623,1210.0315 2234.5931,1209.4504 Z " fill="#000000"/><text fill="#000000" font-family="sans-serif" font-size="14" lengthAdjust="spacing" textLength="95.7646" x="2246.12" y="1211.321">ReverseAction</text><line style="stroke:#181818;stroke-width:0.5;" x1="2218.12" x2="2343.8846" y1="1222.03" y2="1222.03"/><line style="stroke:#181818;stroke-width:0.5;" x1="2218.12" x2="2343.8846" y1="1230.03" y2="1230.03"/></g><!--class DrawFromBottomAction--><g class="entity" data-entity="DrawFromBottomAction" data-source-line="36" data-uid="ent0028" id="entity_DrawFromBottomAction"><rect fill="#F1F1F1" height="48" rx="2.5" ry="2.5" style="stroke:#181818;stroke-width:0.5;" width="193.834" x="2380.08" y="1190.03"/><ellipse cx="2395.08" cy="1206.03" fill="#ADD1B2" rx="11" ry="11" style="stroke:#181818;stroke-width:1;"/><path d="M2397.5531,1212.1731 Q2396.9721,1212.4719 2396.3329,1212.6213 Q2395.6938,1212.7707 2394.9882,1212.7707 Q2392.4814,1212.7707 2391.1615,1211.1189 Q2389.8417,1209.467 2389.8417,1206.3459 Q2389.8417,1203.2165 2391.1615,1201.5647 Q2392.4814,1199.9128 2394.9882,1199.9128 Q2395.6938,1199.9128 2396.3412,1200.0622 Q2396.9887,1200.2116 2397.5531,1200.5105 L2397.5531,1203.2331 Q2396.9223,1202.6521 2396.3288,1202.3823 Q2395.7353,1202.1125 2395.1044,1202.1125 Q2393.7597,1202.1125 2393.0749,1203.1792 Q2392.3901,1204.2458 2392.3901,1206.3459 Q2392.3901,1208.4377 2393.0749,1209.5044 Q2393.7597,1210.571 2395.1044,1210.571 Q2395.7353,1210.571 2396.3288,1210.3012 Q2396.9223,1210.0315 2397.5531,1209.4504 Z " fill="#000000"/><text fill="#000000" font-family="sans-serif" font-size="14" lengthAdjust="spacing" textLength="161.834" x="2409.08" y="1211.321">DrawFromBottomAction</text><line style="stroke:#181818;stroke-width:0.5;" x1="2381.08" x2="2572.914" y1="1222.03" y2="1222.03"/><line style="stroke:#181818;stroke-width:0.5;" x1="2381.08" x2="2572.914" y1="1230.03" y2="1230.03"/></g><!--class TargetedAttackAction--><g class="entity" data-entity="TargetedAttackAction" data-source-line="37" data-uid="ent0029" id="entity_TargetedAttackAction"><rect fill="#F1F1F1" height="48" rx="2.5" ry="2.5" style="stroke:#181818;stroke-width:0.5;" width="179.3076" x="2609.35" y="1190.03"/><ellipse cx="2624.35" cy="1206.03" fill="#ADD1B2" rx="11" ry="11" style="stroke:#181818;stroke-width:1;"/><path d="M2626.8231,1212.1731 Q2626.2421,1212.4719 2625.6029,1212.6213 Q2624.9638,1212.7707 2624.2582,1212.7707 Q2621.7514,1212.7707 2620.4315,1211.1189 Q2619.1117,1209.467 2619.1117,1206.3459 Q2619.1117,1203.2165 2620.4315,1201.5647 Q2621.7514,1199.9128 2624.2582,1199.9128 Q2624.9638,1199.9128 2625.6112,1200.0622 Q2626.2587,1200.2116 2626.8231,1200.5105 L2626.8231,1203.2331 Q2626.1923,1202.6521 2625.5988,1202.3823 Q2625.0053,1202.1125 2624.3744,1202.1125 Q2623.0297,1202.1125 2622.3449,1203.1792 Q2621.6601,1204.2458 2621.6601,1206.3459 Q2621.6601,1208.4377 2622.3449,1209.5044 Q2623.0297,1210.571 2624.3744,1210.571 Q2625.0053,1210.571 2625.5988,1210.3012 Q2626.1923,1210.0315 2626.8231,1209.4504 Z " fill="#000000"/><text fill="#000000" font-family="sans-serif" font-size="14" lengthAdjust="spacing" textLength="147.3076" x="2638.35" y="1211.321">TargetedAttackAction</text><line style="stroke:#181818;stroke-width:0.5;" x1="2610.35" x2="2787.6576" y1="1222.03" y2="1222.03"/><line style="stroke:#181818;stroke-width:0.5;" x1="2610.35" x2="2787.6576" y1="1230.03" y2="1230.03"/></g><!--class CatomicBombAction--><g class="entity" data-entity="CatomicBombAction" data-source-line="38" data-uid="ent0030" id="entity_CatomicBombAction"><rect fill="#F1F1F1" height="48" rx="2.5" ry="2.5" style="stroke:#181818;stroke-width:0.5;" width="169.4775" x="2823.26" y="1190.03"/><ellipse cx="2838.26" cy="1206.03" fill="#ADD1B2" rx="11" ry="11" style="stroke:#181818;stroke-width:1;"/><path d="M2840.7331,1212.1731 Q2840.1521,1212.4719 2839.5129,1212.6213 Q2838.8738,1212.7707 2838.1682,1212.7707 Q2835.6614,1212.7707 2834.3415,1211.1189 Q2833.0217,1209.467 2833.0217,1206.3459 Q2833.0217,1203.2165 2834.3415,1201.5647 Q2835.6614,1199.9128 2838.1682,1199.9128 Q2838.8738,1199.9128 2839.5212,1200.0622 Q2840.1687,1200.2116 2840.7331,1200.5105 L2840.7331,1203.2331 Q2840.1023,1202.6521 2839.5088,1202.3823 Q2838.9153,1202.1125 2838.2844,1202.1125 Q2836.9397,1202.1125 2836.2549,1203.1792 Q2835.5701,1204.2458 2835.5701,1206.3459 Q2835.5701,1208.4377 2836.2549,1209.5044 Q2836.9397,1210.571 2838.2844,1210.571 Q2838.9153,1210.571 2839.5088,1210.3012 Q2840.1023,1210.0315 2840.7331,1209.4504 Z " fill="#000000"/><text fill="#000000" font-family="sans-serif" font-size="14" lengthAdjust="spacing" textLength="137.4775" x="2852.26" y="1211.321">CatomicBombAction</text><line style="stroke:#181818;stroke-width:0.5;" x1="2824.26" x2="2991.7375" y1="1222.03" y2="1222.03"/><line style="stroke:#181818;stroke-width:0.5;" x1="2824.26" x2="2991.7375" y1="1230.03" y2="1230.03"/></g><!--class NopeAction--><g class="entity" data-entity="NopeAction" data-source-line="39" data-uid="ent0031" id="entity_NopeAction"><rect fill="#F1F1F1" height="48" rx="2.5" ry="2.5" style="stroke:#181818;stroke-width:0.5;" width="110.9551" x="3027.52" y="1190.03"/><ellipse cx="3042.52" cy="1206.03" fill="#ADD1B2" rx="11" ry="11" style="stroke:#181818;stroke-width:1;"/><path d="M3044.9931,1212.1731 Q3044.4121,1212.4719 3043.7729,1212.6213 Q3043.1338,1212.7707 3042.4282,1212.7707 Q3039.9214,1212.7707 3038.6015,1211.1189 Q3037.2817,1209.467 3037.2817,1206.3459 Q3037.2817,1203.2165 3038.6015,1201.5647 Q3039.9214,1199.9128 3042.4282,1199.9128 Q3043.1338,1199.9128 3043.7812,1200.0622 Q3044.4287,1200.2116 3044.9931,1200.5105 L3044.9931,1203.2331 Q3044.3623,1202.6521 3043.7688,1202.3823 Q3043.1753,1202.1125 3042.5444,1202.1125 Q3041.1997,1202.1125 3040.5149,1203.1792 Q3039.8301,1204.2458 3039.8301,1206.3459 Q3039.8301,1208.4377 3040.5149,1209.5044 Q3041.1997,1210.571 3042.5444,1210.571 Q3043.1753,1210.571 3043.7688,1210.3012 Q3044.3623,1210.0315 3044.9931,1209.4504 Z " fill="#000000"/><text fill="#000000" font-family="sans-serif" font-size="14" lengthAdjust="spacing" textLength="78.9551" x="3056.52" y="1211.321">NopeAction</text><line style="stroke:#181818;stroke-width:0.5;" x1="3028.52" x2="3137.4751" y1="1222.03" y2="1222.03"/><line style="stroke:#181818;stroke-width:0.5;" x1="3028.52" x2="3137.4751" y1="1230.03" y2="1230.03"/></g><!--class GameContext--><g class="entity" data-entity="GameContext" data-source-line="52" data-uid="ent0042" id="entity_GameContext"><rect fill="#F1F1F1" height="48" rx="2.5" ry="2.5" style="stroke:#181818;stroke-width:0.5;" width="124.5518" x="3249.72" y="1031.03"/><ellipse cx="3264.72" cy="1047.03" fill="#ADD1B2" rx="11" ry="11" style="stroke:#181818;stroke-width:1;"/><path d="M3267.1931,1053.1731 Q3266.6121,1053.4719 3265.9729,1053.6213 Q3265.3338,1053.7707 3264.6282,1053.7707 Q3262.1214,1053.7707 3260.8015,1052.1189 Q3259.4817,1050.467 3259.4817,1047.3459 Q3259.4817,1044.2165 3260.8015,1042.5647 Q3262.1214,1040.9128 3264.6282,1040.9128 Q3265.3338,1040.9128 3265.9812,1041.0622 Q3266.6287,1041.2116 3267.1931,1041.5105 L3267.1931,1044.2331 Q3266.5623,1043.6521 3265.9688,1043.3823 Q3265.3753,1043.1125 3264.7444,1043.1125 Q3263.3997,1043.1125 3262.7149,1044.1792 Q3262.0301,1045.2458 3262.0301,1047.3459 Q3262.0301,1049.4377 3262.7149,1050.5044 Q3263.3997,1051.571 3264.7444,1051.571 Q3265.3753,1051.571 3265.9688,1051.3012 Q3266.5623,1051.0315 3267.1931,1050.4504 Z " fill="#000000"/><text fill="#000000" font-family="sans-serif" font-size="14" lengthAdjust="spacing" textLength="92.5518" x="3278.72" y="1052.321">GameContext</text><line style="stroke:#181818;stroke-width:0.5;" x1="3250.72" x2="3373.2718" y1="1063.03" y2="1063.03"/><line style="stroke:#181818;stroke-width:0.5;" x1="3250.72" x2="3373.2718" y1="1071.03" y2="1071.03"/></g><!--class CardActionFactory--><g class="entity" data-entity="CardActionFactory" data-source-line="53" data-uid="ent0043" id="entity_CardActionFactory"><rect fill="#F1F1F1" height="48" rx="2.5" ry="2.5" style="stroke:#181818;stroke-width:0.5;" width="156.6465" x="2754.68" y="605.66"/><ellipse cx="2769.68" cy="621.66" fill="#ADD1B2" rx="11" ry="11" style="stroke:#181818;stroke-width:1;"/><path d="M2772.1531,627.8031 Q2771.5721,628.1019 2770.9329,628.2513 Q2770.2938,628.4007 2769.5882,628.4007 Q2767.0814,628.4007 2765.7615,626.7489 Q2764.4417,625.097 2764.4417,621.9759 Q2764.4417,618.8465 2765.7615,617.1947 Q2767.0814,615.5428 2769.5882,615.5428 Q2770.2938,615.5428 2770.9412,615.6922 Q2771.5887,615.8416 2772.1531,616.1405 L2772.1531,618.8631 Q2771.5223,618.2821 2770.9288,618.0123 Q2770.3353,617.7425 2769.7044,617.7425 Q2768.3597,617.7425 2767.6749,618.8092 Q2766.9901,619.8758 2766.9901,621.9759 Q2766.9901,624.0677 2767.6749,625.1344 Q2768.3597,626.201 2769.7044,626.201 Q2770.3353,626.201 2770.9288,625.9312 Q2771.5223,625.6615 2772.1531,625.0804 Z " fill="#000000"/><text fill="#000000" font-family="sans-serif" font-size="14" lengthAdjust="spacing" textLength="124.6465" x="2783.68" y="626.951">CardActionFactory</text><line style="stroke:#181818;stroke-width:0.5;" x1="2755.68" x2="2910.3265" y1="637.66" y2="637.66"/><line style="stroke:#181818;stroke-width:0.5;" x1="2755.68" x2="2910.3265" y1="645.66" y2="645.66"/></g><!--class IGameService--><g class="entity" data-entity="IGameService" data-source-line="57" data-uid="ent0046" id="entity_IGameService"><rect fill="#F1F1F1" height="48" rx="2.5" ry="2.5" style="stroke:#181818;stroke-width:0.5;" width="122.084" x="3173.96" y="1190.03"/><ellipse cx="3188.96" cy="1206.03" fill="#ADD1B2" rx="11" ry="11" style="stroke:#181818;stroke-width:1;"/><path d="M3191.4331,1212.1731 Q3190.8521,1212.4719 3190.2129,1212.6213 Q3189.5738,1212.7707 3188.8682,1212.7707 Q3186.3614,1212.7707 3185.0415,1211.1189 Q3183.7217,1209.467 3183.7217,1206.3459 Q3183.7217,1203.2165 3185.0415,1201.5647 Q3186.3614,1199.9128 3188.8682,1199.9128 Q3189.5738,1199.9128 3190.2212,1200.0622 Q3190.8687,1200.2116 3191.4331,1200.5105 L3191.4331,1203.2331 Q3190.8023,1202.6521 3190.2088,1202.3823 Q3189.6153,1202.1125 3188.9844,1202.1125 Q3187.6397,1202.1125 3186.9549,1203.1792 Q3186.2701,1204.2458 3186.2701,1206.3459 Q3186.2701,1208.4377 3186.9549,1209.5044 Q3187.6397,1210.571 3188.9844,1210.571 Q3189.6153,1210.571 3190.2088,1210.3012 Q3190.8023,1210.0315 3191.4331,1209.4504 Z " fill="#000000"/><text fill="#000000" font-family="sans-serif" font-size="14" lengthAdjust="spacing" textLength="90.084" x="3202.96" y="1211.321">IGameService</text><line style="stroke:#181818;stroke-width:0.5;" x1="3174.96" x2="3295.044" y1="1222.03" y2="1222.03"/><line style="stroke:#181818;stroke-width:0.5;" x1="3174.96" x2="3295.044" y1="1230.03" y2="1230.03"/></g><!--class ICardService--><g class="entity" data-entity="ICardService" data-source-line="58" data-uid="ent0048" id="entity_ICardService"><rect fill="#F1F1F1" height="48" rx="2.5" ry="2.5" style="stroke:#181818;stroke-width:0.5;" width="115.3232" x="3331.34" y="1190.03"/><ellipse cx="3346.34" cy="1206.03" fill="#ADD1B2" rx="11" ry="11" style="stroke:#181818;stroke-width:1;"/><path d="M3348.8131,1212.1731 Q3348.2321,1212.4719 3347.5929,1212.6213 Q3346.9538,1212.7707 3346.2482,1212.7707 Q3343.7414,1212.7707 3342.4215,1211.1189 Q3341.1017,1209.467 3341.1017,1206.3459 Q3341.1017,1203.2165 3342.4215,1201.5647 Q3343.7414,1199.9128 3346.2482,1199.9128 Q3346.9538,1199.9128 3347.6012,1200.0622 Q3348.2487,1200.2116 3348.8131,1200.5105 L3348.8131,1203.2331 Q3348.1823,1202.6521 3347.5888,1202.3823 Q3346.9953,1202.1125 3346.3644,1202.1125 Q3345.0197,1202.1125 3344.3349,1203.1792 Q3343.6501,1204.2458 3343.6501,1206.3459 Q3343.6501,1208.4377 3344.3349,1209.5044 Q3345.0197,1210.571 3346.3644,1210.571 Q3346.9953,1210.571 3347.5888,1210.3012 Q3348.1823,1210.0315 3348.8131,1209.4504 Z " fill="#000000"/><text fill="#000000" font-family="sans-serif" font-size="14" lengthAdjust="spacing" textLength="83.3232" x="3360.34" y="1211.321">ICardService</text><line style="stroke:#181818;stroke-width:0.5;" x1="3332.34" x2="3445.6632" y1="1222.03" y2="1222.03"/><line style="stroke:#181818;stroke-width:0.5;" x1="3332.34" x2="3445.6632" y1="1230.03" y2="1230.03"/></g><!--class ITurnService--><g class="entity" data-entity="ITurnService" data-source-line="59" data-uid="ent0050" id="entity_ITurnService"><rect fill="#F1F1F1" height="48" rx="2.5" ry="2.5" style="stroke:#181818;stroke-width:0.5;" width="115.3232" x="3481.34" y="1190.03"/><ellipse cx="3496.34" cy="1206.03" fill="#ADD1B2" rx="11" ry="11" style="stroke:#181818;stroke-width:1;"/><path d="M3498.8131,1212.1731 Q3498.2321,1212.4719 3497.5929,1212.6213 Q3496.9538,1212.7707 3496.2482,1212.7707 Q3493.7414,1212.7707 3492.4215,1211.1189 Q3491.1017,1209.467 3491.1017,1206.3459 Q3491.1017,1203.2165 3492.4215,1201.5647 Q3493.7414,1199.9128 3496.2482,1199.9128 Q3496.9538,1199.9128 3497.6012,1200.0622 Q3498.2487,1200.2116 3498.8131,1200.5105 L3498.8131,1203.2331 Q3498.1823,1202.6521 3497.5888,1202.3823 Q3496.9953,1202.1125 3496.3644,1202.1125 Q3495.0197,1202.1125 3494.3349,1203.1792 Q3493.6501,1204.2458 3493.6501,1206.3459 Q3493.6501,1208.4377 3494.3349,1209.5044 Q3495.0197,1210.571 3496.3644,1210.571 Q3496.9953,1210.571 3497.5888,1210.3012 Q3498.1823,1210.0315 3498.8131,1209.4504 Z " fill="#000000"/><text fill="#000000" font-family="sans-serif" font-size="14" lengthAdjust="spacing" textLength="83.3232" x="3510.34" y="1211.321">ITurnService</text><line style="stroke:#181818;stroke-width:0.5;" x1="3482.34" x2="3595.6632" y1="1222.03" y2="1222.03"/><line style="stroke:#181818;stroke-width:0.5;" x1="3482.34" x2="3595.6632" y1="1230.03" y2="1230.03"/></g><!--class GameFacade--><g class="entity" data-entity="GameFacade" data-source-line="74" data-uid="ent0056" id="entity_GameFacade"><rect fill="#F1F1F1" height="196.3945" rx="2.5" ry="2.5" style="stroke:#181818;stroke-width:0.5;" width="329.6934" x="1204.15" y="531.46"/><ellipse cx="1322.0118" cy="547.46" fill="#ADD1B2" rx="11" ry="11" style="stroke:#181818;stroke-width:1;"/><path d="M1324.485,553.6031 Q1323.9039,553.9019 1323.2647,554.0513 Q1322.6256,554.2007 1321.92,554.2007 Q1319.4132,554.2007 1318.0934,552.5489 Q1316.7735,550.897 1316.7735,547.7759 Q1316.7735,544.6465 1318.0934,542.9947 Q1319.4132,541.3428 1321.92,541.3428 Q1322.6256,541.3428 1323.273,541.4922 Q1323.9205,541.6416 1324.485,541.9405 L1324.485,544.6631 Q1323.8541,544.0821 1323.2606,543.8123 Q1322.6671,543.5425 1322.0362,543.5425 Q1320.6915,543.5425 1320.0067,544.6092 Q1319.3219,545.6758 1319.3219,547.7759 Q1319.3219,549.8677 1320.0067,550.9344 Q1320.6915,552.001 1322.0362,552.001 Q1322.6671,552.001 1323.2606,551.7312 Q1323.8541,551.4615 1324.485,550.8804 Z " fill="#000000"/><text fill="#000000" font-family="sans-serif" font-size="14" lengthAdjust="spacing" textLength="85.4697" x="1342.5118" y="552.751">GameFacade</text><line style="stroke:#181818;stroke-width:0.5;" x1="1205.15" x2="1532.8434" y1="563.46" y2="563.46"/><rect fill="none" height="6" style="stroke:#C82930;stroke-width:1;" width="6" x="1212.15" y="574.2041"/><text fill="#000000" font-family="sans-serif" font-size="14" lengthAdjust="spacing" textLength="179.1768" x="1224.15" y="580.9952">IGameService gameService</text><rect fill="none" height="6" style="stroke:#C82930;stroke-width:1;" width="6" x="1212.15" y="590.6924"/><text fill="#000000" font-family="sans-serif" font-size="14" lengthAdjust="spacing" textLength="164.5273" x="1224.15" y="597.4834">ICardService cardService</text><rect fill="none" height="6" style="stroke:#C82930;stroke-width:1;" width="6" x="1212.15" y="607.1807"/><text fill="#000000" font-family="sans-serif" font-size="14" lengthAdjust="spacing" textLength="163.4268" x="1224.15" y="613.9717">ITurnService turnService</text><line style="stroke:#181818;stroke-width:1;" x1="1205.15" x2="1532.8434" y1="620.9248" y2="620.9248"/><ellipse cx="1215.15" cy="634.669" fill="#84BE84" rx="3" ry="3" style="stroke:#038048;stroke-width:1;"/><text fill="#000000" font-family="sans-serif" font-size="14" lengthAdjust="spacing" textLength="172.2725" x="1224.15" y="638.46">setGameType(GameType)</text><ellipse cx="1215.15" cy="651.1573" fill="#84BE84" rx="3" ry="3" style="stroke:#038048;stroke-width:1;"/><text fill="#000000" font-family="sans-serif" font-size="14" lengthAdjust="spacing" textLength="165.2109" x="1224.15" y="654.9483">setNumberOfPlayers(int)</text><ellipse cx="1215.15" cy="667.6455" fill="#84BE84" rx="3" ry="3" style="stroke:#038048;stroke-width:1;"/><text fill="#000000" font-family="sans-serif" font-size="14" lengthAdjust="spacing" textLength="93.4746" x="1224.15" y="671.4366">prepareTurn()</text><ellipse cx="1215.15" cy="684.1338" fill="#84BE84" rx="3" ry="3" style="stroke:#038048;stroke-width:1;"/><text fill="#000000" font-family="sans-serif" font-size="14" lengthAdjust="spacing" textLength="303.6934" x="1224.15" y="687.9248">executeCardAction(CardType, GameContext)</text><ellipse cx="1215.15" cy="700.6221" fill="#84BE84" rx="3" ry="3" style="stroke:#038048;stroke-width:1;"/><text fill="#000000" font-family="sans-serif" font-size="14" lengthAdjust="spacing" textLength="195.4326" x="1224.15" y="704.4131">addObserver(GameObserver)</text><ellipse cx="1215.15" cy="717.1104" fill="#84BE84" rx="3" ry="3" style="stroke:#038048;stroke-width:1;"/><text fill="#000000" font-family="sans-serif" font-size="14" lengthAdjust="spacing" textLength="195.2344" x="1224.15" y="720.9014">checkIfGameOver() : boolean</text></g><!--class GameView--><g class="entity" data-entity="GameView" data-source-line="89" data-uid="ent0058" id="entity_GameView"><rect fill="#F1F1F1" height="48" rx="2.5" ry="2.5" style="stroke:#181818;stroke-width:0.5;" width="102.5059" x="1086.75" y="340.46"/><ellipse cx="1101.75" cy="356.46" fill="#ADD1B2" rx="11" ry="11" style="stroke:#181818;stroke-width:1;"/><path d="M1104.2231,362.6031 Q1103.6421,362.9019 1103.0029,363.0513 Q1102.3638,363.2007 1101.6582,363.2007 Q1099.1514,363.2007 1097.8315,361.5489 Q1096.5117,359.897 1096.5117,356.7759 Q1096.5117,353.6465 1097.8315,351.9947 Q1099.1514,350.3428 1101.6582,350.3428 Q1102.3638,350.3428 1103.0112,350.4922 Q1103.6587,350.6416 1104.2231,350.9405 L1104.2231,353.6631 Q1103.5923,353.0821 1102.9988,352.8123 Q1102.4053,352.5425 1101.7744,352.5425 Q1100.4297,352.5425 1099.7449,353.6092 Q1099.0601,354.6758 1099.0601,356.7759 Q1099.0601,358.8677 1099.7449,359.9344 Q1100.4297,361.001 1101.7744,361.001 Q1102.4053,361.001 1102.9988,360.7312 Q1103.5923,360.4615 1104.2231,359.8804 Z " fill="#000000"/><text fill="#000000" font-family="sans-serif" font-size="14" lengthAdjust="spacing" textLength="70.5059" x="1115.75" y="361.751">GameView</text><line style="stroke:#181818;stroke-width:0.5;" x1="1087.75" x2="1188.2559" y1="372.46" y2="372.46"/><line style="stroke:#181818;stroke-width:0.5;" x1="1087.75" x2="1188.2559" y1="380.46" y2="380.46"/></g><!--class GameObserver--><g class="entity" data-entity="GameObserver" data-source-line="89" data-uid="ent0059" id="entity_GameObserver"><rect fill="#F1F1F1" height="48" rx="2.5" ry="2.5" style="stroke:#181818;stroke-width:0.5;" width="131.8457" x="1072.08" y="198.97"/><ellipse cx="1087.08" cy="214.97" fill="#B4A7E5" rx="11" ry="11" style="stroke:#181818;stroke-width:1;"/><path d="M1083.5077,211.2351 L1083.5077,209.0769 L1090.8871,209.0769 L1090.8871,211.2351 L1088.4218,211.2351 L1088.4218,219.3118 L1090.8871,219.3118 L1090.8871,221.47 L1083.5077,221.47 L1083.5077,219.3118 L1085.9731,219.3118 L1085.9731,211.2351 Z " fill="#000000"/><text fill="#000000" font-family="sans-serif" font-size="14" font-style="italic" lengthAdjust="spacing" textLength="99.8457" x="1101.08" y="220.261">GameObserver</text><line style="stroke:#181818;stroke-width:0.5;" x1="1073.08" x2="1202.9257" y1="230.97" y2="230.97"/><line style="stroke:#181818;stroke-width:0.5;" x1="1073.08" x2="1202.9257" y1="238.97" y2="238.97"/></g><!--class GameController--><g class="entity" data-entity="GameController" data-source-line="90" data-uid="ent0061" id="entity_GameController"><rect fill="#F1F1F1" height="80.9766" rx="2.5" ry="2.5" style="stroke:#181818;stroke-width:0.5;" width="160.292" x="1238.85" y="182.49"/><ellipse cx="1263.4854" cy="198.49" fill="#ADD1B2" rx="11" ry="11" style="stroke:#181818;stroke-width:1;"/><path d="M1265.9586,204.6331 Q1265.3775,204.9319 1264.7384,205.0813 Q1264.0992,205.2307 1263.3937,205.2307 Q1260.8868,205.2307 1259.567,203.5789 Q1258.2472,201.927 1258.2472,198.8059 Q1258.2472,195.6765 1259.567,194.0247 Q1260.8868,192.3728 1263.3937,192.3728 Q1264.0992,192.3728 1264.7467,192.5222 Q1265.3941,192.6716 1265.9586,192.9705 L1265.9586,195.6931 Q1265.3277,195.1121 1264.7342,194.8423 Q1264.1407,194.5725 1263.5099,194.5725 Q1262.1651,194.5725 1261.4803,195.6392 Q1260.7955,196.7058 1260.7955,198.8059 Q1260.7955,200.8977 1261.4803,201.9644 Q1262.1651,203.031 1263.5099,203.031 Q1264.1407,203.031 1264.7342,202.7612 Q1265.3277,202.4915 1265.9586,201.9104 Z " fill="#000000"/><text fill="#000000" font-family="sans-serif" font-size="14" lengthAdjust="spacing" textLength="106.8799" x="1279.6267" y="203.781">GameController</text><line style="stroke:#181818;stroke-width:0.5;" x1="1239.85" x2="1398.142" y1="214.49" y2="214.49"/><rect fill="none" height="6" style="stroke:#C82930;stroke-width:1;" width="6" x="1246.85" y="225.2341"/><text fill="#000000" font-family="sans-serif" font-size="14" lengthAdjust="spacing" textLength="134.292" x="1258.85" y="232.0252">GameFacade facade</text><rect fill="none" height="6" style="stroke:#C82930;stroke-width:1;" width="6" x="1246.85" y="241.7224"/><text fill="#000000" font-family="sans-serif" font-size="14" lengthAdjust="spacing" textLength="104.8154" x="1258.85" y="248.5134">GameView view</text><line style="stroke:#181818;stroke-width:0.5;" x1="1239.85" x2="1398.142" y1="255.4666" y2="255.4666"/></g><!--class GameUI--><g class="entity" data-entity="GameUI" data-source-line="94" data-uid="ent0062" id="entity_GameUI"><rect fill="#F1F1F1" height="64.4883" rx="2.5" ry="2.5" style="stroke:#181818;stroke-width:0.5;" width="202.9551" x="1096.52" y="41"/><ellipse cx="1167.5215" cy="57" fill="#ADD1B2" rx="11" ry="11" style="stroke:#181818;stroke-width:1;"/><path d="M1169.9946,63.1431 Q1169.4136,63.4419 1168.7744,63.5913 Q1168.1352,63.7407 1167.4297,63.7407 Q1164.9228,63.7407 1163.603,62.0889 Q1162.2832,60.437 1162.2832,57.3159 Q1162.2832,54.1865 1163.603,52.5347 Q1164.9228,50.8828 1167.4297,50.8828 Q1168.1352,50.8828 1168.7827,51.0322 Q1169.4302,51.1816 1169.9946,51.4805 L1169.9946,54.2031 Q1169.3638,53.6221 1168.7702,53.3523 Q1168.1767,53.0825 1167.5459,53.0825 Q1166.2012,53.0825 1165.5163,54.1492 Q1164.8315,55.2158 1164.8315,57.3159 Q1164.8315,59.4077 1165.5163,60.4744 Q1166.2012,61.541 1167.5459,61.541 Q1168.1767,61.541 1168.7702,61.2712 Q1169.3638,61.0015 1169.9946,60.4204 Z " fill="#000000"/><text fill="#000000" font-family="sans-serif" font-size="14" lengthAdjust="spacing" textLength="52.4521" x="1188.0215" y="62.291">GameUI</text><line style="stroke:#181818;stroke-width:0.5;" x1="1097.52" x2="1298.4751" y1="73" y2="73"/><rect fill="none" height="6" style="stroke:#C82930;stroke-width:1;" width="6" x="1104.52" y="83.7441"/><text fill="#000000" font-family="sans-serif" font-size="14" lengthAdjust="spacing" textLength="176.9551" x="1116.52" y="90.5352">GameController controller</text><line style="stroke:#181818;stroke-width:0.5;" x1="1097.52" x2="1298.4751" y1="97.4883" y2="97.4883"/></g><!--class Main--><g class="entity" data-entity="Main" data-source-line="97" data-uid="ent0063" id="entity_Main"><rect fill="#F1F1F1" height="48" rx="2.5" ry="2.5" style="stroke:#181818;stroke-width:0.5;" width="64.5254" x="1334.74" y="49.24"/><ellipse cx="1349.74" cy="65.24" fill="#ADD1B2" rx="11" ry="11" style="stroke:#181818;stroke-width:1;"/><path d="M1352.2131,71.3831 Q1351.6321,71.6819 1350.9929,71.8313 Q1350.3538,71.9807 1349.6482,71.9807 Q1347.1414,71.9807 1345.8215,70.3289 Q1344.5017,68.677 1344.5017,65.5559 Q1344.5017,62.4265 1345.8215,60.7747 Q1347.1414,59.1228 1349.6482,59.1228 Q1350.3538,59.1228 1351.0012,59.2722 Q1351.6487,59.4216 1352.2131,59.7205 L1352.2131,62.4431 Q1351.5823,61.8621 1350.9888,61.5923 Q1350.3953,61.3225 1349.7644,61.3225 Q1348.4197,61.3225 1347.7349,62.3892 Q1347.0501,63.4558 1347.0501,65.5559 Q1347.0501,67.6477 1347.7349,68.7144 Q1348.4197,69.781 1349.7644,69.781 Q1350.3953,69.781 1350.9888,69.5112 Q1351.5823,69.2415 1352.2131,68.6604 Z " fill="#000000"/><text fill="#000000" font-family="sans-serif" font-size="14" lengthAdjust="spacing" textLength="32.5254" x="1363.74" y="70.531">Main</text><line style="stroke:#181818;stroke-width:0.5;" x1="1335.74" x2="1398.2654" y1="81.24" y2="81.24"/><line style="stroke:#181818;stroke-width:0.5;" x1="1335.74" x2="1398.2654" y1="89.24" y2="89.24"/></g><!--class GameObserver--><g class="entity" data-entity="GameObserver" data-source-line="111" data-uid="ent0073" id="entity_GameObserver"><rect fill="#F1F1F1" height="48" rx="2.5" ry="2.5" style="stroke:#181818;stroke-width:0.5;" width="131.8457" x="3994.08" y="856.44"/><ellipse cx="4009.08" cy="872.44" fill="#ADD1B2" rx="11" ry="11" style="stroke:#181818;stroke-width:1;"/><path d="M4011.5531,878.5831 Q4010.9721,878.8819 4010.3329,879.0313 Q4009.6938,879.1807 4008.9882,879.1807 Q4006.4814,879.1807 4005.1615,877.5289 Q4003.8417,875.877 4003.8417,872.7559 Q4003.8417,869.6265 4005.1615,867.9747 Q4006.4814,866.3228 4008.9882,866.3228 Q4009.6938,866.3228 4010.3412,866.4722 Q4010.9887,866.6216 4011.5531,866.9205 L4011.5531,869.6431 Q4010.9223,869.0621 4010.3288,868.7923 Q4009.7353,868.5225 4009.1044,868.5225 Q4007.7597,868.5225 4007.0749,869.5892 Q4006.3901,870.6558 4006.3901,872.7559 Q4006.3901,874.8477 4007.0749,875.9144 Q4007.7597,876.981 4009.1044,876.981 Q4009.7353,876.981 4010.3288,876.7112 Q4010.9223,876.4415 4011.5531,875.8604 Z " fill="#000000"/><text fill="#000000" font-family="sans-serif" font-size="14" lengthAdjust="spacing" textLength="99.8457" x="4023.08" y="877.731">GameObserver</text><line style="stroke:#181818;stroke-width:0.5;" x1="3995.08" x2="4124.9257" y1="888.44" y2="888.44"/><line style="stroke:#181818;stroke-width:0.5;" x1="3995.08" x2="4124.9257" y1="896.44" y2="896.44"/></g><!--reverse link GameObservable to Game--><g class="link" data-entity-1="GameObservable" data-entity-2="Game" data-source-line="3" data-uid="lnk6" id="link_GameObservable_Game"><path d="M829.4022,671.8802 C823.9322,710.2902 825.43,769.91 828.81,823.21" fill="none" id="GameObservable-backto-Game" style="stroke:#181818;stroke-width:1;stroke-dasharray:7,7;"/><polygon fill="none" points="831.94,654.06,823.4621,671.0343,835.3423,672.7261,831.94,654.06" style="stroke:#181818;stroke-width:1;"/></g><!--reverse link GameObservable to Game--><g class="link" data-entity-1="GameObservable" data-entity-2="Game" data-source-line="13" data-uid="lnk8" id="link_GameObservable_Game"><path codeLine="13" d="M850.5978,671.8802 C856.0678,710.2902 854.57,769.91 851.19,823.21" fill="none" id="GameObservable-backto-Game-1" style="stroke:#181818;stroke-width:1;stroke-dasharray:7,7;"/><polygon fill="none" points="848.06,654.06,844.6577,672.7261,856.5379,671.0343,848.06,654.06" style="stroke:#181818;stroke-width:1;"/></g><!--reverse link GameObserver to GameView--><g class="link" data-entity-1="GameObserver" data-entity-2="GameView" data-source-line="14" data-uid="lnk10" id="link_GameObserver_GameView"><path codeLine="14" d="M1036.4947,672.0273 C1039.3647,719.5673 1044.75,808.95 1047.6,856.28" fill="none" id="GameObserver-backto-GameView" style="stroke:#181818;stroke-width:1;stroke-dasharray:7,7;"/><polygon fill="none" points="1035.41,654.06,1030.5056,672.3889,1042.4838,671.6657,1035.41,654.06" style="stroke:#181818;stroke-width:1;"/></g><!--reverse link GameEvent to PlayerTurnChangedEvent--><g class="link" data-entity-1="GameEvent" data-entity-2="PlayerTurnChangedEvent" data-source-line="23" data-uid="lnk16" id="link_GameEvent_PlayerTurnChangedEvent"><path codeLine="23" d="M406,922.72 C406,955.66 406,997.53 406,1030.57" fill="none" id="GameEvent-backto-PlayerTurnChangedEvent" style="stroke:#181818;stroke-width:1;"/><polygon fill="none" points="406,904.72,400,922.72,412,922.72,406,904.72" style="stroke:#181818;stroke-width:1;"/></g><!--reverse link GameEvent to CardPlayedEvent--><g class="link" data-entity-1="GameEvent" data-entity-2="CardPlayedEvent" data-source-line="24" data-uid="lnk17" id="link_GameEvent_CardPlayedEvent"><path codeLine="24" d="M432.7737,919.1259 C443.7137,934.0459 448.35,938.89 464,954.03 C495.91,984.9 538.46,1012.38 569.92,1030.69" fill="none" id="GameEvent-backto-CardPlayedEvent" style="stroke:#181818;stroke-width:1;"/><polygon fill="none" points="422.13,904.61,427.9351,922.6738,437.6123,915.578,422.13,904.61" style="stroke:#181818;stroke-width:1;"/></g><!--reverse link GameEvent to GameStateChangedEvent--><g class="link" data-entity-1="GameEvent" data-entity-2="GameStateChangedEvent" data-source-line="25" data-uid="lnk18" id="link_GameEvent_GameStateChangedEvent"><path codeLine="25" d="M359.641,915.3458 C314.601,948.2858 247.26,997.53 202.08,1030.57" fill="none" id="GameEvent-backto-GameStateChangedEvent" style="stroke:#181818;stroke-width:1;"/><polygon fill="none" points="374.17,904.72,356.099,910.5028,363.1829,920.1888,374.17,904.72" style="stroke:#181818;stroke-width:1;"/></g><!--reverse link CardAction to AbstractCardAction--><g class="link" data-entity-1="CardAction" data-entity-2="AbstractCardAction" data-source-line="41" data-uid="lnk32" id="link_CardAction_AbstractCardAction"><path codeLine="41" d="M2762.1693,907.0216 C2673.6593,938.9716 2514.82,996.33 2419.72,1030.66" fill="none" id="CardAction-backto-AbstractCardAction" style="stroke:#181818;stroke-width:1;"/><polygon fill="none" points="2779.1,900.91,2760.1321,901.378,2764.2065,912.6651,2779.1,900.91" style="stroke:#181818;stroke-width:1;"/></g><!--reverse link AbstractCardAction to AttackAction--><g class="link" data-entity-1="AbstractCardAction" data-entity-2="AttackAction" data-source-line="42" data-uid="lnk33" id="link_AbstractCardAction_AttackAction"><path codeLine="42" d="M2254.9081,1074.7593 C2134.2581,1097.7493 1920.45,1140.36 1726,1190.03 C1720.32,1191.48 1714.44,1193.07 1708.56,1194.72" fill="none" id="AbstractCardAction-backto-AttackAction" style="stroke:#181818;stroke-width:1;"/><polygon fill="none" points="2272.59,1071.39,2253.7851,1068.8653,2256.0312,1080.6532,2272.59,1071.39" style="stroke:#181818;stroke-width:1;"/></g><!--reverse link AbstractCardAction to SkipAction--><g class="link" data-entity-1="AbstractCardAction" data-entity-2="SkipAction" data-source-line="43" data-uid="lnk34" id="link_AbstractCardAction_SkipAction"><path codeLine="43" d="M2255.0723,1081.5529 C2157.1923,1106.8429 2006.71,1146.81 1864,1190.03 C1858.56,1191.68 1852.9,1193.46 1847.27,1195.27" fill="none" id="AbstractCardAction-backto-SkipAction" style="stroke:#181818;stroke-width:1;"/><polygon fill="none" points="2272.5,1077.05,2253.5714,1075.7437,2256.5733,1087.3621,2272.5,1077.05" style="stroke:#181818;stroke-width:1;"/></g><!--reverse link AbstractCardAction to SuperSkipAction--><g class="link" data-entity-1="AbstractCardAction" data-entity-2="SuperSkipAction" data-source-line="44" data-uid="lnk35" id="link_AbstractCardAction_SuperSkipAction"><path codeLine="44" d="M2278.4839,1085.9096 C2202.5839,1115.5596 2089.13,1159.86 2013.08,1189.57" fill="none" id="AbstractCardAction-backto-SuperSkipAction" style="stroke:#181818;stroke-width:1;"/><polygon fill="none" points="2295.25,1079.36,2276.3007,1080.3209,2280.6671,1091.4983,2295.25,1079.36" style="stroke:#181818;stroke-width:1;"/></g><!--reverse link AbstractCardAction to ShuffleAction--><g class="link" data-entity-1="AbstractCardAction" data-entity-2="ShuffleAction" data-source-line="45" data-uid="lnk36" id="link_AbstractCardAction_ShuffleAction"><path codeLine="45" d="M2305.2739,1089.3906 C2261.0939,1119.0406 2200.24,1159.86 2155.97,1189.57" fill="none" id="AbstractCardAction-backto-ShuffleAction" style="stroke:#181818;stroke-width:1;"/><polygon fill="none" points="2320.22,1079.36,2301.9303,1084.4086,2308.6174,1094.3727,2320.22,1079.36" style="stroke:#181818;stroke-width:1;"/></g><!--reverse link AbstractCardAction to ReverseAction--><g class="link" data-entity-1="AbstractCardAction" data-entity-2="ReverseAction" data-source-line="46" data-uid="lnk37" id="link_AbstractCardAction_ReverseAction"><path codeLine="46" d="M2336.4054,1095.4819 C2322.4154,1125.1619 2305.98,1160.04 2291.96,1189.77" fill="none" id="AbstractCardAction-backto-ReverseAction" style="stroke:#181818;stroke-width:1;"/><polygon fill="none" points="2344.08,1079.2,2330.9781,1092.9237,2341.8326,1098.0401,2344.08,1079.2" style="stroke:#181818;stroke-width:1;"/></g><!--reverse link AbstractCardAction to DrawFromBottomAction--><g class="link" data-entity-1="AbstractCardAction" data-entity-2="DrawFromBottomAction" data-source-line="47" data-uid="lnk38" id="link_AbstractCardAction_DrawFromBottomAction"><path codeLine="47" d="M2384.0466,1093.4117 C2407.1166,1123.0917 2435.82,1160.04 2458.92,1189.77" fill="none" id="AbstractCardAction-backto-DrawFromBottomAction" style="stroke:#181818;stroke-width:1;"/><polygon fill="none" points="2373,1079.2,2379.3094,1097.0939,2388.7839,1089.7295,2373,1079.2" style="stroke:#181818;stroke-width:1;"/></g><!--reverse link AbstractCardAction to TargetedAttackAction--><g class="link" data-entity-1="AbstractCardAction" data-entity-2="TargetedAttackAction" data-source-line="48" data-uid="lnk39" id="link_AbstractCardAction_TargetedAttackAction"><path codeLine="48" d="M2422.5041,1086.836 C2487.4441,1116.486 2582.51,1159.86 2647.59,1189.57" fill="none" id="AbstractCardAction-backto-TargetedAttackAction" style="stroke:#181818;stroke-width:1;"/><polygon fill="none" points="2406.13,1079.36,2420.0121,1092.294,2424.996,1081.378,2406.13,1079.36" style="stroke:#181818;stroke-width:1;"/></g><!--reverse link AbstractCardAction to CatomicBombAction--><g class="link" data-entity-1="AbstractCardAction" data-entity-2="CatomicBombAction" data-source-line="49" data-uid="lnk40" id="link_AbstractCardAction_CatomicBombAction"><path codeLine="49" d="M2454.8058,1084.3656 C2559.2858,1114.0256 2720.95,1159.92 2825.45,1189.59" fill="none" id="AbstractCardAction-backto-CatomicBombAction" style="stroke:#181818;stroke-width:1;"/><polygon fill="none" points="2437.49,1079.45,2453.1672,1090.1376,2456.4443,1078.5937,2437.49,1079.45" style="stroke:#181818;stroke-width:1;"/></g><!--reverse link AbstractCardAction to NopeAction--><g class="link" data-entity-1="AbstractCardAction" data-entity-2="NopeAction" data-source-line="50" data-uid="lnk41" id="link_AbstractCardAction_NopeAction"><path codeLine="50" d="M2455.0496,1073.1584 C2579.7896,1095.0284 2806.07,1137.19 3010,1190.03 C3015.66,1191.5 3021.53,1193.14 3027.37,1194.85" fill="none" id="AbstractCardAction-backto-NopeAction" style="stroke:#181818;stroke-width:1;"/><polygon fill="none" points="2437.32,1070.05,2454.0134,1079.0683,2456.0857,1067.2486,2437.32,1070.05" style="stroke:#181818;stroke-width:1;"/></g><!--link CardActionFactory to CardAction--><g class="link" data-entity-1="CardActionFactory" data-entity-2="CardAction" data-source-line="55" data-uid="lnk44" id="link_CardActionFactory_CardAction"><path codeLine="55" d="M2820.8,653.97 C2807.28,682.63 2788.31,732.88 2796,776.86 C2800.92,805.02 2810.4849,830.1619 2819.4949,850.5519" fill="none" id="CardActionFactory-to-CardAction" style="stroke:#181818;stroke-width:1;"/><polygon fill="#181818" points="2821.92,856.04,2821.9411,846.1912,2819.8991,851.4666,2814.6237,849.4246,2821.92,856.04" style="stroke:#181818;stroke-width:1;"/><text fill="#000000" font-family="sans-serif" font-size="13" lengthAdjust="spacing" textLength="45.1318" x="2797" y="773.4284">creates</text><text fill="#000000" font-family="sans-serif" font-size="13" lengthAdjust="spacing" textLength="8.2202" x="2808.8773" y="674.3299">1</text><text fill="#000000" font-family="sans-serif" font-size="13" lengthAdjust="spacing" textLength="6.2651" x="2812.5204" y="845.8706">*</text></g><!--link CardAction to GameContext--><g class="link" data-entity-1="CardAction" data-entity-2="GameContext" data-source-line="56" data-uid="lnk45" id="link_CardAction_GameContext"><path codeLine="56" d="M2845.97,904.86 C2856.15,921.07 2871.79,941.85 2891,954.03 C3003.63,1025.42 3156.4836,1045.4766 3243.3036,1051.3266" fill="none" id="CardAction-to-GameContext" style="stroke:#181818;stroke-width:1;"/><polygon fill="#181818" points="3249.29,1051.73,3240.5793,1047.134,3244.3013,1051.3939,3240.0414,1055.1159,3249.29,1051.73" style="stroke:#181818;stroke-width:1;"/></g><!--link GameContext to IGameService--><g class="link" data-entity-1="GameContext" data-entity-2="IGameService" data-source-line="57" data-uid="lnk47" id="link_GameContext_IGameService"><path codeLine="57" d="M3300.64,1079.2 C3286.08,1108.88 3263.6319,1154.6529 3249.0519,1184.3829" fill="none" id="GameContext-to-IGameService" style="stroke:#181818;stroke-width:1;"/><polygon fill="#181818" points="3246.41,1189.77,3253.9642,1183.4507,3248.6116,1185.2808,3246.7815,1179.9281,3246.41,1189.77" style="stroke:#181818;stroke-width:1;"/></g><!--link GameContext to ICardService--><g class="link" data-entity-1="GameContext" data-entity-2="ICardService" data-source-line="58" data-uid="lnk49" id="link_GameContext_ICardService"><path codeLine="58" d="M3323.36,1079.2 C3337.92,1108.88 3360.3681,1154.6529 3374.9481,1184.3829" fill="none" id="GameContext-to-ICardService" style="stroke:#181818;stroke-width:1;"/><polygon fill="#181818" points="3377.59,1189.77,3377.2185,1179.9281,3375.3884,1185.2808,3370.0358,1183.4507,3377.59,1189.77" style="stroke:#181818;stroke-width:1;"/></g><!--link GameContext to ITurnService--><g class="link" data-entity-1="GameContext" data-entity-2="ITurnService" data-source-line="59" data-uid="lnk51" id="link_GameContext_ITurnService"><path codeLine="59" d="M3345.49,1079.2 C3388.41,1108.88 3457.4451,1156.6272 3500.4351,1186.3572" fill="none" id="GameContext-to-ITurnService" style="stroke:#181818;stroke-width:1;"/><polygon fill="#181818" points="3505.37,1189.77,3500.2428,1181.3609,3501.2576,1186.926,3495.6925,1187.9408,3505.37,1189.77" style="stroke:#181818;stroke-width:1;"/></g><!--reverse link IGameService to GameService--><g class="link" data-entity-1="IGameService" data-entity-2="GameService" data-source-line="64" data-uid="lnk54" id="link_IGameService_GameService"><path d="M3794,672.06 C3794,706.6 3794,754.7 3794,806.42" fill="none" id="IGameService-backto-GameService" style="stroke:#181818;stroke-width:1;stroke-dasharray:7,7;"/><polygon fill="none" points="3794,654.06,3788,672.06,3800,672.06,3794,654.06" style="stroke:#181818;stroke-width:1;"/></g><!--reverse link GameObserver to GameView--><g class="link" data-entity-1="GameObserver" data-entity-2="GameView" data-source-line="89" data-uid="lnk60" id="link_GameObserver_GameView"><path d="M1138,265.32 C1138,291.07 1138,314.26 1138,340.04" fill="none" id="GameObserver-backto-GameView-1" style="stroke:#181818;stroke-width:1;stroke-dasharray:7,7;"/><polygon fill="none" points="1138,247.32,1132,265.32,1144,265.32,1138,247.32" style="stroke:#181818;stroke-width:1;"/></g><!--link GameController to GameFacade--><g class="link" data-entity-1="GameController" data-entity-2="GameFacade" data-source-line="99" data-uid="lnk64" id="link_GameController_GameFacade"><path codeLine="99" d="M1325.11,263.81 C1331.09,303.46 1340.26,366.09 1347,420.46 C1351.47,456.53 1355.1917,490.2219 1358.8117,525.1619" fill="none" id="GameController-to-GameFacade" style="stroke:#181818;stroke-width:1;"/><polygon fill="#181818" points="1359.43,531.13,1362.4812,521.7657,1358.9147,526.1566,1354.5238,522.5901,1359.43,531.13" style="stroke:#181818;stroke-width:1;"/><text fill="#000000" font-family="sans-serif" font-size="13" lengthAdjust="spacing" textLength="28.5645" x="1346.89" y="369.5284">uses</text></g><!--link GameController to GameView--><g class="link" data-entity-1="GameController" data-entity-2="GameView" data-source-line="100" data-uid="lnk65" id="link_GameController_GameView"><path codeLine="100" d="M1267.13,263.95 C1235.17,288.58 1200.0315,315.6462 1173.1215,336.3962" fill="none" id="GameController-to-GameView" style="stroke:#181818;stroke-width:1;"/><polygon fill="#181818" points="1168.37,340.06,1177.9398,337.7319,1172.3296,337.0068,1173.0547,331.3966,1168.37,340.06" style="stroke:#181818;stroke-width:1;"/><text fill="#000000" font-family="sans-serif" font-size="13" lengthAdjust="spacing" textLength="50.3433" x="1229.5" y="307.0284">updates</text></g><!--link GameView to GameFacade--><g class="link" data-entity-1="GameView" data-entity-2="GameFacade" data-source-line="101" data-uid="lnk66" id="link_GameView_GameFacade"><path codeLine="101" d="M1128.24,388.89 C1123.68,403.51 1120.7,422.35 1128,437.46 C1145.43,473.53 1168.7709,500.9694 1199.5109,527.2694" fill="none" id="GameView-to-GameFacade" style="stroke:#181818;stroke-width:1;"/><polygon fill="#181818" points="1204.07,531.17,1199.8318,522.2797,1200.2708,527.9195,1194.631,528.3585,1204.07,531.17" style="stroke:#181818;stroke-width:1;"/><text fill="#000000" font-family="sans-serif" font-size="13" lengthAdjust="spacing" textLength="213.5859" x="1129" y="434.0284">(event driven) [optional reference]</text></g><!--link GameUI to GameController--><g class="link" data-entity-1="GameUI" data-entity-2="GameController" data-source-line="102" data-uid="lnk67" id="link_GameUI_GameController"><path codeLine="102" d="M1223.96,105.93 C1242.22,128.23 1262.9974,153.5989 1282.5874,177.5089" fill="none" id="GameUI-to-GameController" style="stroke:#181818;stroke-width:1;"/><polygon fill="#181818" points="1286.39,182.15,1283.7802,172.6532,1283.2212,178.2824,1277.592,177.7233,1286.39,182.15" style="stroke:#181818;stroke-width:1;"/><text fill="#000000" font-family="sans-serif" font-size="13" lengthAdjust="spacing" textLength="60.4424" x="1259.5" y="149.0584">delegates</text></g><!--link Main to GameController--><g class="link" data-entity-1="Main" data-entity-2="GameController" data-source-line="103" data-uid="lnk68" id="link_Main_GameController"><path codeLine="103" d="M1359.39,97.65 C1352.02,120.35 1342.5449,149.5239 1333.7549,176.5639" fill="none" id="Main-to-GameController" style="stroke:#181818;stroke-width:1;"/><polygon fill="#181818" points="1331.9,182.27,1338.4864,174.9475,1333.4457,177.5149,1330.8783,172.4743,1331.9,182.27" style="stroke:#181818;stroke-width:1;"/><text fill="#000000" font-family="sans-serif" font-size="13" lengthAdjust="spacing" textLength="45.1318" x="1346.87" y="149.0584">creates</text></g><!--link Main to GameFacade--><g class="link" data-entity-1="Main" data-entity-2="GameFacade" data-source-line="104" data-uid="lnk69" id="link_Main_GameFacade"><path codeLine="104" d="M1382.26,97.53 C1394.98,118.68 1411.83,151.24 1417,182.49 C1436.75,301.81 1416.2089,434.6445 1395.9389,525.3245" fill="none" id="Main-to-GameFacade" style="stroke:#181818;stroke-width:1;"/><polygon fill="#181818" points="1394.63,531.18,1400.497,523.2694,1395.7207,526.3004,1392.6897,521.5242,1394.63,531.18" style="stroke:#181818;stroke-width:1;"/><text fill="#000000" font-family="sans-serif" font-size="13" lengthAdjust="spacing" textLength="45.1318" x="1425.69" y="307.0284">creates</text></g><!--link Game to PlayerTurnChangedEvent--><g class="link" data-entity-1="Game" data-entity-2="PlayerTurnChangedEvent" data-source-line="107" data-uid="lnk70" id="link_Game_PlayerTurnChangedEvent"><path codeLine="107" d="M736.1,937.9 C724.38,943.61 712.51,949.11 701,954.03 C629.9,984.43 551.9146,1010.3052 491.8646,1028.7852" fill="none" id="Game-to-PlayerTurnChangedEvent" style="stroke:#181818;stroke-width:1;"/><polygon fill="#181818" points="486.13,1030.55,495.9084,1031.7259,490.9088,1029.0793,493.5554,1024.0798,486.13,1030.55" style="stroke:#181818;stroke-width:1;"/><text fill="#000000" font-family="sans-serif" font-size="13" lengthAdjust="spacing" textLength="47.0806" x="622.44" y="997.5984">notifies</text></g><!--link Game to CardPlayedEvent--><g class="link" data-entity-1="Game" data-entity-2="CardPlayedEvent" data-source-line="108" data-uid="lnk71" id="link_Game_CardPlayedEvent"><path codeLine="108" d="M765.99,937.72 C724.45,969.29 679.646,1003.3583 648.426,1027.0983" fill="none" id="Game-to-CardPlayedEvent" style="stroke:#181818;stroke-width:1;"/><polygon fill="#181818" points="643.65,1030.73,653.2352,1028.4664,647.63,1027.7035,648.3929,1022.0984,643.65,1030.73" style="stroke:#181818;stroke-width:1;"/><text fill="#000000" font-family="sans-serif" font-size="13" lengthAdjust="spacing" textLength="47.0806" x="700.49" y="997.5984">notifies</text></g><!--link GameFacade to Game--><g class="link" data-entity-1="GameFacade" data-entity-2="Game" data-source-line="110" data-uid="lnk72" id="link_GameFacade_Game"><path codeLine="110" d="M1203.65,711.69 C1174.59,725.41 1144.52,739.27 1116,751.86 C1056.35,778.18 1039.23,779.6 980,806.86 C968.93,811.95 962.856,814.8057 951.496,820.4357" fill="none" id="GameFacade-to-Game" style="stroke:#181818;stroke-width:1;"/><polygon fill="#181818" points="946.12,823.1,955.9602,822.6875,950.6,820.8797,952.4078,815.5195,946.12,823.1" style="stroke:#181818;stroke-width:1;"/><text fill="#000000" font-family="sans-serif" font-size="13" lengthAdjust="spacing" textLength="37.3242" x="1097.22" y="773.4284">wraps</text></g><!--link GameFacade to GameObserver--><g class="link" data-entity-1="GameFacade" data-entity-2="GameObserver" data-source-line="111" data-uid="lnk74" id="link_GameFacade_GameObserver"><path codeLine="111" d="M1513.15,728.28 C1532.91,737.91 1553.47,746.2 1574,751.86 C1601.3,759.38 3584.74,757.97 3613,759.86 C3774.88,770.64 3826.73,741 3975,806.86 C4000.36,818.12 4019.7704,835.1067 4035.6204,851.7367" fill="none" id="GameFacade-to-GameObserver" style="stroke:#181818;stroke-width:1;"/><polygon fill="#181818" points="4039.76,856.08,4036.4462,846.8054,4036.3104,852.4606,4030.6551,852.3248,4039.76,856.08" style="stroke:#181818;stroke-width:1;"/><text fill="#000000" font-family="sans-serif" font-size="13" lengthAdjust="spacing" textLength="77.0161" x="3889.94" y="773.4284">add/remove</text></g><!--SRC=[dLPDZzCm4BttLrWzTO46SQrMA-qM5bM2BM8B5yJ1TIPTQvCuifrsA-2_OpjEulXZMT5BdPddcV5x_fW6aqTy03JFMOLfdHrm1NFqQuRKZvHO2FHHMH2jcX8gg6NtlTqBu4UyBy52zM-9Fb4XBqS_y2l4x4YCiEKmV8rmdlVOXJlnmi5mgDWH_WchcQJ5kVS8W_jmL2Lte3ypyqTh2Rp01Bnr99t0kudUiYz_PvcnUKxWe-ixXTDCvMqY76UWInCzrNWl9CT4EfoRsXqTlfJu37pNydhzWEi3v3vWZNbkG857XxkNMC9avb2v-LHbBvVF9V6GiMmU99xM9KGpHWbaQkMKrJqPemmwoRNnnLYwjfyUoZgbL5a2y_qZRK9Zsm2FUnxQeYWXi7y5lST2-tkEJxUSLJTCIbO5xXtc1v2G9ufROpM9aXjMxGFV7MlwTCOwBheZEq56QBPmlu8KqACb2OjGcCG6fAQG8SqfP9Bur8Ia5Aa9SN5IQ5-kyI2kcThUJ_x1xR2tAXBZPrzXQqRpTtDrVLwX-Qkvg_yA4Gxgc0b_OsYidzBvDlwDEQNTEOm3TC1d0Vgww06Hqnq-9nRilYfk6PCt9MG1JwWQ7m1u0jAgosQOiD33tRc1DsxDxfiXG7OttbrRxO5l2xqKiV0WshXZ_ORPr3ayROfktsm9QJc7V3A5raeFlQpnDdNyMJQy56sJQzcopBvGiQjHtOCuZt1uQ-mJgYOS7ZnPBSGH4n5FM0jnv4JIaJRwW2jwT5RDyg8VUFJrt7PiY0Mj9neq71hCmMFfl-HyIJT17e0yRWhZrhWBTNpsZ9M0wuWABGsPryzwl25IlK9urZahIwMrAvIZNoUlvpCPZhfxw2gQ1lss2O8vUSWm32P_Lit7R7A4xPp-dh0rhL0hx6MI09e2L_t-7P3670HRc5O7vPog_mlqWpLQJLogngu03ZM1dqC4jJRtqh9fLoY74Wv3BhsGECwz22UeePeUeLHssp7JvMfmsADbyQP8nJ8j9rN1NXh9QvhS43EdId-s2Rb29uuRuUCchUTA7u6tNSFy5m00]--></g></svg>